<svg width="33" height="33" viewBox="0 0 33 33" fill="none" xmlns="http://www.w3.org/2000/svg">
<g clip-path="url(#clip0_1210_2977)">
<path d="M16.2542 3.16415C20.5927 3.16415 21.1065 3.18318 22.8127 3.25929C24.3984 3.32907 25.2547 3.59547 25.8255 3.81746C26.5803 4.10923 27.1258 4.46443 27.6903 5.02894C28.2612 5.5998 28.61 6.13894 28.9018 6.89373C29.1238 7.46459 29.3902 8.32721 29.46 9.90657C29.5361 11.6191 29.5551 12.1329 29.5551 16.465C29.5551 20.8035 29.5361 21.3173 29.46 23.0235C29.3902 24.6092 29.1238 25.4655 28.9018 26.0364C28.61 26.7912 28.2548 27.3366 27.6903 27.9012C27.1195 28.472 26.5803 28.8209 25.8255 29.1126C25.2547 29.3346 24.3921 29.601 22.8127 29.6708C21.1001 29.7469 20.5864 29.7659 16.2542 29.7659C11.9157 29.7659 11.402 29.7469 9.69575 29.6708C8.11004 29.601 7.25376 29.3346 6.68291 29.1126C5.92811 28.8209 5.38263 28.4657 4.81812 27.9012C4.24726 27.3303 3.89841 26.7912 3.60664 26.0364C3.38464 25.4655 3.11824 24.6029 3.04847 23.0235C2.97236 21.311 2.95333 20.7972 2.95333 16.465C2.95333 12.1266 2.97236 11.6128 3.04847 9.90657C3.11824 8.32087 3.38464 7.46459 3.60664 6.89373C3.89841 6.13894 4.25361 5.59345 4.81812 5.02894C5.38897 4.45809 5.92811 4.10923 6.68291 3.81746C7.25376 3.59547 8.11639 3.32907 9.69575 3.25929C11.402 3.18318 11.9157 3.16415 16.2542 3.16415ZM16.2542 0.240112C11.846 0.240112 11.2941 0.259141 9.56255 0.335255C7.8373 0.411368 6.65119 0.690453 5.62366 1.09005C4.55172 1.50868 3.6447 2.0605 2.74401 2.96753C1.83699 3.86821 1.28517 4.77523 0.86654 5.84082C0.466942 6.8747 0.187858 8.05447 0.111744 9.77972C0.03563 11.5176 0.0166016 12.0695 0.0166016 16.4777C0.0166016 20.886 0.03563 21.4378 0.111744 23.1694C0.187858 24.8947 0.466942 26.0808 0.86654 27.1083C1.28517 28.1802 1.83699 29.0873 2.74401 29.9879C3.6447 30.8886 4.55172 31.4468 5.61731 31.8591C6.65119 32.2587 7.83096 32.5378 9.5562 32.6139C11.2878 32.69 11.8396 32.709 16.2479 32.709C20.6561 32.709 21.208 32.69 22.9396 32.6139C24.6648 32.5378 25.8509 32.2587 26.8785 31.8591C27.944 31.4468 28.8511 30.8886 29.7517 29.9879C30.6524 29.0873 31.2106 28.1802 31.6229 27.1146C32.0225 26.0808 32.3016 24.901 32.3777 23.1758C32.4538 21.4442 32.4728 20.8923 32.4728 16.4841C32.4728 12.0758 32.4538 11.524 32.3777 9.7924C32.3016 8.06715 32.0225 6.88105 31.6229 5.85351C31.2233 4.77523 30.6715 3.86821 29.7644 2.96753C28.8638 2.06684 27.9567 1.50868 26.8911 1.09639C25.8573 0.696795 24.6775 0.417711 22.9522 0.341597C21.2143 0.259141 20.6625 0.240112 16.2542 0.240112Z" fill="black"/>
<path d="M16.2544 8.13696C11.6495 8.13696 7.91357 11.8729 7.91357 16.4778C7.91357 21.0827 11.6495 24.8186 16.2544 24.8186C20.8593 24.8186 24.5952 21.0827 24.5952 16.4778C24.5952 11.8729 20.8593 8.13696 16.2544 8.13696ZM16.2544 21.8882C13.2669 21.8882 10.844 19.4652 10.844 16.4778C10.844 13.4903 13.2669 11.0673 16.2544 11.0673C19.2419 11.0673 21.6648 13.4903 21.6648 16.4778C21.6648 19.4652 19.2419 21.8882 16.2544 21.8882Z" fill="black"/>
<path d="M26.872 7.80699C26.872 8.88527 25.9967 9.75424 24.9248 9.75424C23.8465 9.75424 22.9775 8.87893 22.9775 7.80699C22.9775 6.72871 23.8528 5.85974 24.9248 5.85974C25.9967 5.85974 26.872 6.73505 26.872 7.80699Z" fill="black"/>
</g>
<defs>
<clipPath id="clip0_1210_2977">
<rect width="32.4752" height="32.4752" fill="white" transform="translate(0.0166016 0.240112)"/>
</clipPath>
</defs>
</svg>
