<svg width="33" height="33" viewBox="0 0 33 33" fill="none" xmlns="http://www.w3.org/2000/svg">
<g clip-path="url(#clip0_1210_2976)">
<path d="M30.5962 0.240112H2.92249C1.59684 0.240112 0.524902 1.28668 0.524902 2.58061V30.3685C0.524902 31.6624 1.59684 32.7154 2.92249 32.7154H30.5962C31.9219 32.7154 33.0001 31.6625 33.0001 30.3749V2.58061C33.0001 1.28668 31.9219 0.240112 30.5962 0.240112ZM10.1596 27.9138H5.3391V12.412H10.1596V27.9138ZM7.74938 10.2998C6.20173 10.2998 4.95219 9.05029 4.95219 7.50899C4.95219 5.96768 6.20173 4.71814 7.74938 4.71814C9.29068 4.71814 10.5402 5.96768 10.5402 7.50899C10.5402 9.04395 9.29068 10.2998 7.74938 10.2998ZM28.1986 27.9138H23.3844V20.3786C23.3844 18.5836 23.3527 16.2684 20.879 16.2684C18.3736 16.2684 17.993 18.2284 17.993 20.2517V27.9138H13.1852V12.412H17.8027V14.5305H17.8662C18.5068 13.3127 20.0798 12.0251 22.4203 12.0251C27.298 12.0251 28.1986 15.2345 28.1986 19.4081V27.9138Z" fill="black"/>
</g>
<defs>
<clipPath id="clip0_1210_2976">
<rect width="32.4752" height="32.4752" fill="white" transform="translate(0.524902 0.240112)"/>
</clipPath>
</defs>
</svg>
