<svg width="33" height="27" viewBox="0 0 33 27" fill="none" xmlns="http://www.w3.org/2000/svg">
<path d="M10.7247 26.6706C22.9765 26.6706 29.6796 16.5176 29.6796 7.71567C29.6796 7.43024 29.6732 7.13847 29.6605 6.85304C30.9645 5.91005 32.0898 4.74201 32.9835 3.40382C31.7691 3.94413 30.4798 4.297 29.1595 4.45038C30.5496 3.61709 31.5905 2.30801 32.0892 0.765839C30.7814 1.5409 29.3512 2.08764 27.8598 2.38262C26.855 1.31493 25.5264 0.607995 24.0795 0.371108C22.6326 0.134221 21.1479 0.380579 19.8551 1.07209C18.5622 1.76361 17.5332 2.86176 16.927 4.19677C16.3209 5.53179 16.1714 7.0293 16.5017 8.45778C13.8536 8.32489 11.2629 7.63698 8.89771 6.43863C6.5325 5.24029 4.44551 3.55826 2.77205 1.50161C1.92151 2.96804 1.66125 4.7033 2.04415 6.35473C2.42705 8.00616 3.42439 9.44983 4.83347 10.3923C3.77562 10.3588 2.74094 10.0739 1.81492 9.56143V9.64389C1.81397 11.1828 2.34599 12.6745 3.32053 13.8655C4.29508 15.0566 5.65201 15.8733 7.16065 16.177C6.18072 16.4451 5.15224 16.4842 4.15479 16.2912C4.5805 17.6146 5.40878 18.7722 6.52403 19.6022C7.63928 20.4323 8.98586 20.8935 10.3758 20.9214C8.01607 22.775 5.10108 23.7805 2.10035 23.7757C1.56819 23.7749 1.03656 23.7423 0.508301 23.678C3.55672 25.6337 7.10285 26.6725 10.7247 26.6706Z" fill="black"/>
</svg>
